<svg width="19" height="26" viewBox="0 0 19 26" fill="none" xmlns="http://www.w3.org/2000/svg">
<g clip-path="url(#clip0_317_947)">
<path fill-rule="evenodd" clip-rule="evenodd" d="M4 0H15V1H16V2H17V18H2V2H3V1H4V0Z" fill="#F1FFFF"/>
<path fill-rule="evenodd" clip-rule="evenodd" d="M15 1H4V2H3V18H16V2H15V1Z" fill="#DEFFFF"/>
<path d="M4 8H15V18H4V8Z" fill="#C4C4C4"/>
<rect x="5" y="2" width="2" height="5" fill="#161617"/>
<rect x="8" y="1" width="5" height="4" fill="black"/>
<path fill-rule="evenodd" clip-rule="evenodd" d="M5 5H14V7V9V9.42856H15V18H4V9.42856H5V9V7V5Z" fill="#F5CEB1"/>
<path d="M14 8H15V18H14V8Z" fill="#D5B196"/>
<path d="M5 8H4V18H5V8Z" fill="#F7DDBF"/>
<rect x="7" y="13" width="5" height="2" fill="#DF9999"/>
<rect x="6" y="13" width="7" height="1" fill="white"/>
<rect x="5" y="13" width="1" height="1" fill="#D5B196"/>
<rect x="13" y="13" width="1" height="1" fill="#D5B196"/>
<path fill-rule="evenodd" clip-rule="evenodd" d="M17 18H2V19H0V20H2V21H3V22H4V23H15V22H16V21H17V20H19V19H17V18Z" fill="#C2BCF2"/>
<path fill-rule="evenodd" clip-rule="evenodd" d="M4 18H2V20H3H4H8V22H10V23H15V22V21V19H14H8H4V18Z" fill="#ACA4D4"/>
<path fill-rule="evenodd" clip-rule="evenodd" d="M18 19H17H14V20V21H15V22H14V23H15V22H16V21H17V20H18V19Z" fill="#867DC6"/>
<path fill-rule="evenodd" clip-rule="evenodd" d="M3 19H6V20H3V19ZM13 19H16V20H13V19ZM11 21H8V22H11V21Z" fill="#FFFF00"/>
<path fill-rule="evenodd" clip-rule="evenodd" d="M3 23H4V24H3V23ZM2 25V24H3V25H2ZM2 25V26H1V25H2ZM6 23H7V24H6V23ZM5 25V24H6V25H5ZM5 25V26H4V25H5ZM10 23H9V24H8V25H7V26H8V25H9V24H10V25H11V26H12V25H11V24H10V23ZM12 23H13V24H12V23ZM14 25H13V24H14V25ZM14 25H15V26H14V25ZM16 23H15V24H16V25H17V26H18V25H17V24H16V23Z" fill="#867DC6"/>
<path d="M11 5H14V8H11V5Z" fill="black"/>
<rect x="7" y="9" width="5" height="3" fill="#3BD84B"/>
<rect x="11" y="10" width="4" height="1" fill="#3BD84B"/>
<rect x="4" y="10" width="4" height="1" fill="#3BD84B"/>
<rect x="8" y="10" width="3" height="1" fill="black"/>
<rect x="10" y="10" width="1" height="1" fill="#8F8F8F"/>
<rect x="7" y="2" width="7" height="3" fill="black"/>
<rect x="4" y="3" width="1" height="6" fill="#161617"/>
<rect x="5" y="2" width="2" height="4" fill="#161617"/>
<rect x="14" y="3" width="1" height="6" fill="black"/>
<rect x="15" y="5" width="1" height="4" fill="black"/>
<rect x="3" y="5" width="1" height="4" fill="black"/>
<rect x="10" y="5" width="1" height="2" fill="black"/>
<rect x="5" y="6" width="2" height="1" fill="#161617"/>
<rect x="6" y="7" width="1" height="1" fill="#161617"/>
<rect x="9" y="5" width="1" height="1" fill="black"/>
</g>
<defs>
<clipPath id="clip0_317_947">
<rect width="19" height="26" fill="white"/>
</clipPath>
</defs>
</svg>
