<svg width="19" height="26" viewBox="0 0 19 26" fill="none" xmlns="http://www.w3.org/2000/svg">
<g clip-path="url(#clip0_45_52039)">
<path fill-rule="evenodd" clip-rule="evenodd" d="M4 0H15V1H16V2H17V18H2V2H3V1H4V0Z" fill="#F1FFFF"/>
<path fill-rule="evenodd" clip-rule="evenodd" d="M15 1H4V2H3V18H16V2H15V1Z" fill="#DEFFFF"/>
<path fill-rule="evenodd" clip-rule="evenodd" d="M11 2H10V3H9V4H8V5H7V6H6V8H5V9H4V12H5V13H4V14H3V17H4V18H15V17H16V14H15V13H14V12H15V9H14V8H13V6H12V4H11V3V2Z" fill="#926016"/>
<rect x="10" y="2" width="1" height="1" fill="#AF8038"/>
<rect x="9" y="3" width="1" height="1" fill="#AF8038"/>
<rect x="8" y="4" width="1" height="1" fill="#AF8038"/>
<rect x="7" y="5" width="1" height="1" fill="#AF8038"/>
<rect x="6" y="6" width="1" height="2" fill="#AF8038"/>
<rect x="4" y="13" width="2" height="1" fill="#AF8038"/>
<rect x="6" y="12" width="2" height="1" fill="#AF8038"/>
<rect x="3" y="14" width="1" height="2" fill="#AF8038"/>
<rect x="5" y="8" width="1" height="1" fill="#AF8038"/>
<rect x="4" y="9" width="1" height="2" fill="#AF8038"/>
<rect x="11" y="13" width="2" height="1" fill="#6F4405"/>
<rect x="13" y="12" width="1" height="1" fill="#6F4405"/>
<rect x="14" y="11" width="1" height="1" fill="#6F4405"/>
<rect x="15" y="15" width="1" height="2" fill="#6F4405"/>
<rect x="11" y="17" width="4" height="1" fill="#6F4405"/>
<rect x="14" y="16" width="1" height="2" fill="#6F4405"/>
<rect x="12" y="7" width="1" height="2" fill="#6F4405"/>
<rect x="6" y="11" width="2" height="1" fill="#6F4405"/>
<rect x="8" y="14" width="3" height="1" fill="#6F4405"/>
<path fill-rule="evenodd" clip-rule="evenodd" d="M12 7H7V9H6V10H7V12H12V10H13V9H12V7Z" fill="white"/>
<path fill-rule="evenodd" clip-rule="evenodd" d="M11 8H8V11H11V8ZM10 9H9V10H10V9Z" fill="black"/>
<path fill-rule="evenodd" clip-rule="evenodd" d="M6 14H7V15H6V14ZM12 15H7V16H12V15ZM12 15V14H13V15H12Z" fill="white"/>
<path fill-rule="evenodd" clip-rule="evenodd" d="M17 18H2V19H0V20H2V21H3V22H4V23H15V22H16V21H17V20H19V19H17V18Z" fill="#C2BCF2"/>
<path fill-rule="evenodd" clip-rule="evenodd" d="M4 18H2V20H3H4H8V22H10V23H15V22V21V19H14H8H4V18Z" fill="#ACA4D4"/>
<path fill-rule="evenodd" clip-rule="evenodd" d="M18 19H17H14V20V21H15V22H14V23H15V22H16V21H17V20H18V19Z" fill="#867DC6"/>
<path fill-rule="evenodd" clip-rule="evenodd" d="M3 19H6V20H3V19ZM13 19H16V20H13V19ZM11 21H8V22H11V21Z" fill="#FFFF00"/>
<path fill-rule="evenodd" clip-rule="evenodd" d="M3 23H4V24H3V23ZM2 25V24H3V25H2ZM2 25V26H1V25H2ZM6 23H7V24H6V23ZM5 25V24H6V25H5ZM5 25V26H4V25H5ZM10 23H9V24H8V25H7V26H8V25H9V24H10V25H11V26H12V25H11V24H10V23ZM12 23H13V24H12V23ZM14 25H13V24H14V25ZM14 25H15V26H14V25ZM16 23H15V24H16V25H17V26H18V25H17V24H16V23Z" fill="#867DC6"/>
</g>
<defs>
<clipPath id="clip0_45_52039">
<rect width="19" height="26" fill="white"/>
</clipPath>
</defs>
</svg>
