<svg width="19" height="26" viewBox="0 0 19 26" fill="none" xmlns="http://www.w3.org/2000/svg">
<g clip-path="url(#clip0_3337_50248)">
<path fill-rule="evenodd" clip-rule="evenodd" d="M4 0H15V1H16V2H17V18H2V2H3V1H4V0Z" fill="#F1FFFF"/>
<path fill-rule="evenodd" clip-rule="evenodd" d="M15 1H4V2H3V18H16V2H15V1Z" fill="#DEFFFF"/>
<path fill-rule="evenodd" clip-rule="evenodd" d="M14 2H5V3H4V18H15V3H14V2Z" fill="#D73D71"/>
<path fill-rule="evenodd" clip-rule="evenodd" d="M14 5H5V6H4V18H15V6H14V5Z" fill="#471AFF"/>
<path fill-rule="evenodd" clip-rule="evenodd" d="M14 5H13V6H14V18H15V6H14V5Z" fill="#0200FF"/>
<path d="M5 6H4V18H5V6Z" fill="#766BFF"/>
<path fill-rule="evenodd" clip-rule="evenodd" d="M12 7H7V9H6V10H7V12H12V10H13V9H12V7Z" fill="white"/>
<path fill-rule="evenodd" clip-rule="evenodd" d="M11 8H8V11H11V8ZM10 9H9V10H10V9Z" fill="black"/>
<path fill-rule="evenodd" clip-rule="evenodd" d="M6 14H7V15H6V14ZM12 15H7V16H12V15ZM12 15V14H13V15H12Z" fill="#161617"/>
<path fill-rule="evenodd" clip-rule="evenodd" d="M17 18H2V19H0V20H2V21H3V22H4V23H15V22H16V21H17V20H19V19H17V18Z" fill="#C2BCF2"/>
<path fill-rule="evenodd" clip-rule="evenodd" d="M4 18H2V20H3H4H8V22H10V23H15V22V21V19H14H8H4V18Z" fill="#ACA4D4"/>
<path fill-rule="evenodd" clip-rule="evenodd" d="M18 19H17H14V20V21H15V22H14V23H15V22H16V21H17V20H18V19Z" fill="#867DC6"/>
<rect x="3" y="19" width="1" height="1" fill="#009873"/>
<rect x="4" y="19" width="1" height="1" fill="#FFFF00"/>
<rect x="13" y="19" width="1" height="1" fill="#009873"/>
<rect x="14" y="19" width="1" height="1" fill="#FFFF00"/>
<rect x="15" y="19" width="1" height="1" fill="#D73D71"/>
<rect x="8" y="21" width="1" height="1" fill="#D73D71"/>
<rect x="9" y="21" width="1" height="1" fill="#FFFF00"/>
<rect x="10" y="21" width="1" height="1" fill="#009873"/>
<path fill-rule="evenodd" clip-rule="evenodd" d="M3 23H4V24H3V23ZM2 25V24H3V25H2ZM2 25V26H1V25H2ZM6 23H7V24H6V23ZM5 25V24H6V25H5ZM5 25V26H4V25H5ZM10 23H9V24H8V25H7V26H8V25H9V24H10V25H11V26H12V25H11V24H10V23ZM12 23H13V24H12V23ZM14 25H13V24H14V25ZM14 25H15V26H14V25ZM16 23H15V24H16V25H17V26H18V25H17V24H16V23Z" fill="#867DC6"/>
<rect x="2" y="24" width="1" height="1" fill="#009873"/>
<rect x="5" y="24" width="1" height="1" fill="#D73D71"/>
<rect x="1" y="25" width="1" height="1" fill="#D73D71"/>
<rect x="10" y="24" width="1" height="1" fill="#D73D71"/>
<rect x="14" y="25" width="1" height="1" fill="#D73D71"/>
<rect x="7" y="25" width="1" height="1" fill="#D73D71"/>
<rect x="16" y="24" width="1" height="1" fill="#D73D71"/>
<rect x="8" y="24" width="1" height="1" fill="#009873"/>
<rect x="17" y="25" width="1" height="1" fill="#009873"/>
<rect x="13" y="24" width="1" height="1" fill="#009873"/>
<rect x="4" y="25" width="1" height="1" fill="#009873"/>
<rect x="11" y="25" width="1" height="1" fill="#009873"/>
<rect x="7" y="14" width="5" height="1" fill="white"/>
<rect x="6" y="13" width="7" height="1" fill="white"/>
<rect x="6" y="15" width="1" height="1" fill="white"/>
<rect x="5" y="13" width="1" height="2" fill="white"/>
<rect x="12" y="15" width="1" height="1" fill="white"/>
<rect x="13" y="13" width="1" height="2" fill="white"/>
<rect x="6" y="16" width="7" height="1" fill="white"/>
<rect x="6" y="17" width="6" height="1" fill="white"/>
<rect x="6" y="18" width="5" height="1" fill="white"/>
<rect x="6" y="19" width="3" height="1" fill="white"/>
<rect width="1" height="1" transform="matrix(-1 0 0 1 6 19)" fill="#A50B3F"/>
<rect x="6" y="20" width="3" height="1" fill="white"/>
<rect width="1" height="2" transform="matrix(-1 0 0 1 5 20)" fill="#ACA4D4"/>
<rect width="1" height="1" transform="matrix(1 0 0 -1 5 23)" fill="#ACA4D4"/>
<rect width="1" height="2" transform="matrix(1 0 0 -1 5 22)" fill="#ACA4D4"/>
<rect width="1" height="1" transform="matrix(1 0 0 -1 7 22)" fill="#ACA4D4"/>
<rect width="1" height="1" transform="matrix(1 0 0 -1 11 19)" fill="#ACA4D4"/>
<rect x="11" y="17" width="1" height="1" fill="#E1E1E1"/>
<rect x="12" y="16" width="1" height="1" fill="#E1E1E1"/>
<rect x="10" y="18" width="1" height="1" fill="#E1E1E1"/>
<rect x="13" y="13" width="1" height="2" fill="#E1E1E1"/>
<rect width="1" height="1" transform="matrix(-1 0 0 1 10 19)" fill="#E1E1E1"/>
<rect width="2" height="1" transform="matrix(-1 0 0 1 10 20)" fill="#E1E1E1"/>
<rect x="14" y="8" width="2" height="4" fill="#E1E1E1"/>
<rect x="15" y="11" width="1" height="1" fill="#C3C3C3"/>
<rect x="12" y="9" width="1" height="1" fill="#A5A5A5"/>
<rect x="13" y="9" width="4" height="2" fill="#E1E1E1"/>
<rect x="16" y="9" width="1" height="2" fill="#C3C3C3"/>
<rect x="15" y="3" width="1" height="5" fill="#B91F53"/>
<rect width="1" height="3" transform="matrix(-1 0 0 1 15 5)" fill="#D73D71"/>
<rect x="15" y="4" width="1" height="2" transform="rotate(180 15 4)" fill="#B91F53"/>
<rect x="6" y="1" width="8" height="1" fill="#D73D71"/>
<rect x="4" y="3" width="1" height="3" fill="#F55B8F"/>
<rect x="5" y="5" width="9" height="1" fill="#E1E1E1"/>
<rect x="5" y="7" width="1" height="1" transform="rotate(180 5 7)" fill="#E1E1E1"/>
<rect x="6" y="21" width="2" height="1" fill="white"/>
<rect width="1" height="1" transform="matrix(-1 0 0 1 8 21)" fill="#E1E1E1"/>
</g>
<defs>
<clipPath id="clip0_3337_50248">
<rect width="19" height="26" fill="white"/>
</clipPath>
</defs>
</svg>
