<svg width="19" height="26" viewBox="0 0 19 26" fill="none" xmlns="http://www.w3.org/2000/svg">
<path opacity="0.7" fill-rule="evenodd" clip-rule="evenodd" d="M13 1H6V2H4V3H3V5H2V18H17V5H16V3H15V2H13V1Z" fill="#D5FFFF"/>
<path opacity="0.4" fill-rule="evenodd" clip-rule="evenodd" d="M16 3H15V5H16V18H17V5H16V3Z" fill="#60A9A9"/>
<path fill-rule="evenodd" clip-rule="evenodd" d="M6 4H7V5H8V4H9V5H10V4H11V5H12V4H13V5H14V6H15V18H4V6H5V5H6V4Z" fill="#471AFF"/>
<path fill-rule="evenodd" clip-rule="evenodd" d="M13 4H12V5H13V6H14V18H15V6H14V5H13V4Z" fill="#0200FF"/>
<path fill-rule="evenodd" clip-rule="evenodd" d="M12 7H7V9H6V10H7V12H12V10H13V9H12V7Z" fill="white"/>
<path fill-rule="evenodd" clip-rule="evenodd" d="M11 8H8V11H11V8ZM10 9H9V10H10V9Z" fill="black"/>
<path fill-rule="evenodd" clip-rule="evenodd" d="M6 13H7V14H6V13ZM12 14H7V16H12V14ZM12 14V13H13V14H12Z" fill="white"/>
<rect x="8" y="15" width="3" height="1" fill="#E5333D"/>
<path fill-rule="evenodd" clip-rule="evenodd" d="M17 18H2V19H0V20H2V21H3V22H4V23H15V22H16V21H17V20H19V19H17V18Z" fill="#C2BCF2"/>
<path fill-rule="evenodd" clip-rule="evenodd" d="M4 18H2V20H3H4H8V22H10V23H15V22V21V19H14H8H4V18Z" fill="#ACA4D4"/>
<path fill-rule="evenodd" clip-rule="evenodd" d="M18 19H17H14V20V21H15V22H14V23H15V22H16V21H17V20H18V19Z" fill="#867DC6"/>
<path fill-rule="evenodd" clip-rule="evenodd" d="M3 19H6V20H3V19ZM13 19H16V20H13V19ZM11 21H8V22H11V21Z" fill="#FFFF00"/>
<path fill-rule="evenodd" clip-rule="evenodd" d="M3 23H4V24H3V23ZM2 25V24H3V25H2ZM2 25V26H1V25H2ZM6 23H7V24H6V23ZM5 25V24H6V25H5ZM5 25V26H4V25H5ZM10 23H9V24H8V25H7V26H8V25H9V24H10V25H11V26H12V25H11V24H10V23ZM12 23H13V24H12V23ZM14 25H13V24H14V25ZM14 25H15V26H14V25ZM16 23H15V24H16V25H17V26H18V25H17V24H16V23Z" fill="#867DC6"/>
<path opacity="0.7" fill-rule="evenodd" clip-rule="evenodd" d="M12 2H6V3H5V4H4V5H3V12H4V5H5V4H6V3H12V2Z" fill="#E3FFFD"/>
</svg>
